<svg version="1.1" id="Layer_1" xmlns="http://www.w3.org/2000/svg" xmlns:xlink="http://www.w3.org/1999/xlink" x="0px" y="0px"
	 width="100%" viewBox="0 0 512 512" enable-background="new 0 0 512 512" xml:space="preserve">
<path fill="#000000" opacity="1.000000" stroke="none" 
	d="
M512.665710,294.786774 
	C513.000000,366.300385 512.975342,437.600830 513.080811,508.901062 
	C513.085510,512.107361 512.730164,513.108765 509.102417,513.106079 
	C341.013489,512.984070 172.924469,512.982544 4.835553,513.112122 
	C1.080685,513.114990 0.925608,511.916321 0.929565,508.839081 
	C1.020819,437.871918 1.000000,366.904602 1.000000,295.468658 
	C4.308786,294.017822 3.994177,296.651154 4.225862,298.418091 
	C7.101849,320.351959 12.628574,341.599823 21.272163,361.950043 
	C32.699883,388.855164 48.525772,412.946350 68.005432,434.780273 
	C82.873901,451.445679 99.661163,465.727264 118.288879,477.901703 
	C135.671814,489.262512 154.374680,497.983612 174.011398,504.648621 
	C185.678192,508.608521 192.625229,503.460541 192.659668,491.182678 
	C192.695663,478.351013 192.706451,465.518951 192.647980,452.687408 
	C192.625626,447.779572 192.291779,447.492188 187.444046,448.139618 
	C172.462524,450.140350 157.536636,450.137177 142.736694,446.798279 
	C126.885620,443.222290 114.723427,434.817078 107.853050,419.636261 
	C103.803520,410.688446 99.926056,401.690979 94.009140,393.679108 
	C89.874184,388.080109 85.127762,383.364166 79.310165,379.618225 
	C75.652008,377.262787 72.235962,374.574585 69.925797,370.788849 
	C67.360291,366.584656 68.547325,363.618652 73.470589,363.019012 
	C79.246323,362.315582 85.056969,362.146942 90.711372,364.407898 
	C102.519569,369.129517 111.963799,376.679260 119.088074,387.208069 
	C124.206841,394.773010 128.727890,402.786224 136.624771,408.113495 
	C145.965576,414.414795 155.897659,417.407806 167.285309,416.029449 
	C174.584442,415.145996 181.854660,414.529053 188.766830,411.809509 
	C190.991852,410.934082 193.252594,410.063721 193.734726,407.392670 
	C195.784851,396.034912 200.267365,385.821594 208.710037,376.733215 
	C198.927216,375.615387 190.080612,374.235321 181.344528,372.168488 
	C158.660904,366.801910 138.265121,357.137085 121.885376,340.197296 
	C109.869240,327.770264 103.337257,312.282410 98.635422,295.959503 
	C94.270386,280.805847 92.542381,265.217194 92.764694,249.525909 
	C93.092278,226.403885 99.439499,205.109421 114.436104,187.031067 
	C117.910149,182.843109 118.500839,179.089035 116.867050,173.835876 
	C110.930756,154.748611 113.586967,135.947357 120.027802,117.458473 
	C121.389030,113.550957 124.164314,111.680176 128.392685,111.666077 
	C138.180481,111.633453 146.913651,115.465965 155.734146,118.944412 
	C167.233612,123.479340 178.201950,129.095184 188.521057,135.906586 
	C191.852615,138.105682 195.109970,138.445572 198.935547,137.450882 
	C215.435440,133.160767 232.202118,131.066284 249.284164,130.517960 
	C271.406403,129.807892 293.147095,131.809586 314.540894,137.335007 
	C318.956757,138.475479 322.577911,137.895615 326.322021,135.440140 
	C337.638947,128.018188 349.689911,121.979881 362.238525,116.918922 
	C369.552917,113.968948 377.045990,111.917496 384.994080,111.654282 
	C389.659485,111.499779 392.412018,113.488602 393.925598,117.933891 
	C400.522949,137.310471 403.140228,156.825348 396.325958,176.709564 
	C395.135590,180.182983 396.198578,182.740265 398.382690,185.376053 
	C409.691254,199.023193 417.062012,214.589401 419.622925,232.126144 
	C423.658081,259.758270 420.156525,286.622284 409.678467,312.466034 
	C395.590668,347.213043 366.717682,363.119263 332.619965,372.130157 
	C324.108978,374.379303 315.337219,375.334229 306.170624,376.779419 
	C308.566772,381.336182 311.811218,384.678436 313.937988,388.772278 
	C318.977448,398.472839 321.237061,408.787750 321.294983,419.586182 
	C321.415619,442.082855 321.331238,464.580627 321.331726,487.077942 
	C321.331787,488.577759 321.308655,490.078003 321.342285,491.577301 
	C321.601013,503.120636 328.652344,508.273102 339.704224,504.746063 
	C345.572052,502.873413 351.379974,500.729095 357.026611,498.279907 
	C376.500854,489.833282 394.852600,479.492493 411.803101,466.566559 
	C437.039093,447.322357 457.642700,423.908661 474.426575,397.213806 
	C493.386475,367.058014 505.171051,334.129211 509.732666,298.709137 
	C509.956390,296.971893 509.708099,294.844299 512.665710,294.786774 
z"/>
<path fill="#FFFFFF" opacity="1.000000" stroke="none" 
	d="
M513.000000,294.531342 
	C510.824646,294.115997 511.135895,295.849518 511.016052,296.962433 
	C508.072998,324.295929 500.181305,350.093323 488.141998,374.830719 
	C478.897430,393.825714 467.253296,411.084900 454.083801,427.476501 
	C436.804413,448.983490 416.127838,466.682983 392.956146,481.371307 
	C376.123779,492.041229 357.997070,500.435028 338.954285,506.350800 
	C328.507416,509.596222 320.186005,505.310272 320.063019,492.323883 
	C319.840546,468.827118 319.981171,445.326721 320.006287,421.827881 
	C320.024597,404.678802 315.740143,389.127014 302.964294,376.287079 
	C309.268433,374.211975 315.566437,374.111511 321.665497,373.071167 
	C338.636932,370.176300 354.645660,364.782410 369.512115,356.021027 
	C375.815857,352.306000 381.830902,348.226654 387.217407,343.271057 
	C402.313049,329.383240 410.124268,311.523712 414.995514,292.083771 
	C418.671570,277.413361 420.439636,262.459595 419.895721,247.394302 
	C419.114197,225.745804 413.189453,205.632843 399.054413,188.698105 
	C394.982330,183.819473 393.495422,179.595154 395.801544,173.105026 
	C400.020050,161.233063 399.867065,148.892273 397.336609,136.442505 
	C396.273712,131.213074 395.060455,126.060837 393.459045,121.016014 
	C390.819611,112.701172 387.830353,111.383644 379.397461,113.204666 
	C361.883942,116.986565 345.704376,124.254723 331.209656,134.308594 
	C322.627106,140.261673 315.107666,139.101532 306.431427,136.893326 
	C298.262238,134.814194 289.839996,133.972076 281.493530,132.753174 
	C273.799072,131.629471 266.073181,131.926865 258.433716,131.430298 
	C251.379425,130.971786 243.922913,131.307816 236.749435,132.208694 
	C228.230774,133.278473 219.631851,133.954224 211.241013,135.979858 
	C207.952652,136.773682 204.310287,136.719650 201.353714,138.142090 
	C194.994507,141.201553 190.022522,138.832825 184.878677,135.427292 
	C169.364655,125.156136 152.419189,118.049789 134.501251,113.238274 
	C125.967613,110.946732 122.608421,112.891953 120.026314,121.431046 
	C116.418221,133.363083 114.040253,145.530258 115.078987,158.051498 
	C115.624542,164.627853 116.777100,171.231598 119.218781,177.391724 
	C120.467430,180.541946 119.854507,182.415176 117.784904,184.829163 
	C106.341736,198.176529 98.943260,213.463745 95.947037,230.888412 
	C94.492165,239.349228 93.615410,247.825974 94.031166,256.380035 
	C95.394478,284.430115 101.230339,311.265625 118.241638,334.311584 
	C125.361031,343.956573 135.265869,350.910461 145.678543,357.027496 
	C161.030121,366.045929 177.893814,370.535736 195.107697,373.818329 
	C200.156036,374.781036 205.425995,374.850555 211.149628,376.065125 
	C204.226059,383.306335 198.975571,391.049408 196.845139,400.543762 
	C196.743591,400.996338 196.127136,401.360199 196.088074,401.795685 
	C195.805573,404.945831 196.142563,408.870697 193.899902,410.787170 
	C190.253937,413.902985 185.140091,414.807129 180.501755,415.845520 
	C174.808411,417.120087 168.886337,417.775116 163.045883,417.901825 
	C152.734665,418.125519 143.567719,414.670319 135.048126,408.713776 
	C126.425209,402.685059 122.295944,393.285767 116.081474,385.461304 
	C105.839867,372.566376 93.782852,363.163818 76.149559,363.952972 
	C73.430595,364.074615 69.989525,364.055847 69.391647,366.586304 
	C68.975838,368.346161 71.201721,371.257812 72.958839,372.888306 
	C76.146667,375.846497 79.809235,378.311401 83.371864,380.844086 
	C95.121788,389.197296 101.727783,401.404236 106.807655,414.189484 
	C114.058556,432.438873 126.935860,442.531494 145.985458,446.135773 
	C156.987625,448.217438 167.965729,447.956177 178.989670,447.934204 
	C182.215500,447.927795 185.633118,447.664886 188.620712,446.578583 
	C193.448013,444.823364 194.128250,446.657623 194.069962,450.950500 
	C193.882187,464.780640 193.883408,478.616119 194.032730,492.447174 
	C194.182541,506.323975 184.598511,509.311493 174.930405,506.272156 
	C150.091400,498.463501 127.136284,486.541870 106.056511,471.349945 
	C94.085907,462.722900 82.869217,452.981384 72.744270,442.168152 
	C62.380619,431.099976 52.853909,419.330719 44.291069,406.779724 
	C30.074230,385.941498 19.057375,363.587524 11.797736,339.410217 
	C7.612175,325.470795 4.049926,311.399109 2.999521,296.811005 
	C2.940959,295.997711 3.044930,295.110382 1.433551,295.007996 
	C1.000000,273.979095 1.000000,252.958206 1.000000,231.468658 
	C2.861941,228.851089 1.877620,226.183731 2.226398,223.779694 
	C6.579819,193.772842 16.135632,165.587616 30.886656,139.065094 
	C42.628201,117.953644 56.711292,98.633308 73.709091,81.520096 
	C91.297340,63.812431 111.097641,49.007179 133.027649,36.955860 
	C159.763916,22.263332 188.122467,12.644186 218.286194,8.315967 
	C238.460236,5.421172 258.682465,4.955238 279.033234,6.532020 
	C304.838379,8.531410 329.752594,14.131326 353.661163,23.918552 
	C387.551270,37.791832 417.351501,57.731392 442.742767,84.295937 
	C478.384460,121.584534 501.056671,165.435669 510.659119,216.093323 
	C511.558228,220.836426 511.562805,225.676620 512.752563,230.701721 
	C513.000000,252.020889 513.000000,273.041779 513.000000,294.531342 
z"/>
<path fill="#000000" opacity="1.000000" stroke="none" 
	d="
M513.000000,230.531342 
	C510.842926,231.865189 511.117645,230.160629 511.017242,229.037491 
	C509.295929,209.781387 504.168427,191.299438 497.579163,173.264496 
	C489.480194,151.097595 477.978699,130.677780 464.106232,111.575943 
	C452.324219,95.352608 438.577911,81.015038 423.461090,67.881371 
	C407.253510,53.800114 389.366180,42.315342 370.238098,32.730873 
	C349.742493,22.461147 328.106049,15.349985 305.619568,11.090289 
	C284.339142,7.059049 262.728882,5.848209 241.164993,7.177837 
	C222.103165,8.353188 203.246216,11.408241 184.781937,16.859081 
	C169.639542,21.329260 154.998550,26.947353 141.011536,34.097710 
	C122.991089,43.310001 106.186226,54.431839 90.742332,67.650818 
	C71.387032,84.217720 54.758610,103.079773 41.024521,124.501076 
	C24.038980,150.993713 11.904029,179.464279 5.930314,210.482300 
	C4.669949,217.026627 3.285349,223.521576 2.863845,230.186996 
	C2.845745,230.473221 2.206150,230.720123 1.428034,230.992676 
	C1.000000,155.700562 1.023243,80.401093 0.919839,5.101800 
	C0.915444,1.901494 1.261219,0.890952 4.894788,0.893598 
	C172.985687,1.016010 341.076691,1.017502 509.167603,0.887552 
	C512.929138,0.884644 513.073486,2.093532 513.069824,5.164191 
	C512.980530,80.130280 513.000000,155.096497 513.000000,230.531342 
z"/>
</svg>